<svg xmlns="http://www.w3.org/2000/svg" width="97" height="79" viewBox="0 0 97 79">
    <g fill="#2D9232" fill-rule="evenodd">
        <path d="M30.254 0v6.765H3.014V74.3H0v4.113h96.45V74.3h-3.013V6.766h-27.24V0H30.253zm3.855 3.856h28.232v2.91h-7.244v1.283h-4.726v6.542h4.726V18.6h-4.726v6.543h4.726v4.01h-4.726v6.543h4.726v4.01h-4.726v6.542h4.726v4.01h-4.726v6.543h4.726v6.514H41.353V56.8h4.726v-6.542h-4.726v-4.011h4.726v-6.542h-4.726v-4.01h4.726v-6.543h-4.726v-4.01h4.726V18.6h-4.726v-4.01h4.726V8.05h-4.726V6.766H34.11v-2.91zM59.21 74.3h30.113V10.878H59.21V74.3zm-52.084 0H37.24V10.878H7.126V74.3zm34.227 0h13.744v-7.13H41.353v7.13z"/>
        <path d="M63.199 22.33h8.779v-6.979h-8.779zM76.556 22.33h8.779v-6.979h-8.779zM63.199 33.585h8.779v-6.979h-8.779zM76.556 33.585h8.779v-6.979h-8.779zM63.199 44.842h8.779v-6.979h-8.779zM76.556 44.842h8.779v-6.979h-8.779zM63.199 56.098h8.779V49.12h-8.779zM76.556 56.098h8.779V49.12h-8.779zM63.199 67.353h8.779v-6.979h-8.779zM76.556 67.353h8.779v-6.979h-8.779zM11.116 22.33h8.779v-6.979h-8.779zM24.472 22.33h8.78v-6.979h-8.78zM11.116 33.585h8.779v-6.979h-8.779zM24.472 33.585h8.78v-6.979h-8.78zM11.116 44.842h8.779v-6.979h-8.779zM24.472 44.842h8.78v-6.979h-8.78zM11.116 56.098h8.779V49.12h-8.779zM24.472 56.098h8.78V49.12h-8.78zM11.116 67.353h8.779v-6.979h-8.779zM24.472 67.353h8.78v-6.979h-8.78z"/>
    </g>
</svg>
