<svg xmlns="http://www.w3.org/2000/svg" xmlns:xlink="http://www.w3.org/1999/xlink" width="104" height="53" viewBox="0 0 104 53">
    <defs>
        <path id="a" d="M0 .879h19.832v50.184H0z"/>
        <path id="c" d="M0 53.122h103.376V1H0z"/>
    </defs>
    <g fill="none" fill-rule="evenodd" transform="translate(0 -1)">
        <path fill="#2D9232" d="M84.277 39.613l6.946-10.796c1.032-1.595 1.032-3.837.004-5.44l-6.95-10.796a3.221 3.221 0 1 0-5.419 3.487l6.458 10.028-6.458 10.033a3.227 3.227 0 0 0 .965 4.454 3.214 3.214 0 0 0 1.74.513 3.234 3.234 0 0 0 2.714-1.483"/>
        <path fill="#2D9232" d="M102.385 22.535L89.475 2.48a3.224 3.224 0 0 0-4.453-.965 3.225 3.225 0 0 0-.966 4.453L96.915 25.93c.028.08.035.233.049.237l-12.906 20.06a3.223 3.223 0 0 0 .965 4.453 3.202 3.202 0 0 0 1.736.51 3.2 3.2 0 0 0 2.705-1.475l12.909-20.06c1.335-2.06 1.338-5.054.013-7.121M23.55 11.61a3.217 3.217 0 0 0-4.45.967l-6.95 10.798c-1.03 1.599-1.03 3.837 0 5.442l6.95 10.796a3.204 3.204 0 0 0 2.707 1.478c.596 0 1.198-.165 1.739-.512a3.23 3.23 0 0 0 .965-4.455l-6.46-10.031 6.46-10.032a3.215 3.215 0 0 0-.961-4.45"/>
        <g transform="translate(0 .122)">
            <mask id="b" fill="#fff">
                <use xlink:href="#a"/>
            </mask>
            <path fill="#2D9232" d="M6.463 26.14c-.03-.079-.041-.236-.05-.238L19.319 5.843a3.22 3.22 0 1 0-5.415-3.485L.993 22.415c-1.324 2.06-1.324 5.053 0 7.117l12.91 20.055a3.21 3.21 0 0 0 4.446.965 3.221 3.221 0 0 0 .965-4.45L6.463 26.14z" mask="url(#b)"/>
        </g>
        <mask id="d" fill="#fff">
            <use xlink:href="#c"/>
        </mask>
        <path fill="#2D9232" d="M39.469 14.638h26.002v-8.32H39.469zM49.869 35.44v14.562a3.12 3.12 0 1 0 6.24 0V35.44h-6.24zM68.59 12.039h3.121v-3.12H68.59z" mask="url(#d)"/>
        <path fill="#2D9232" d="M47.788 19.319h-9.36a3.646 3.646 0 0 1-3.641-3.641c0-1.234.618-2.326 1.56-2.984V9.247c-2.712.88-4.68 3.429-4.68 6.43a6.769 6.769 0 0 0 6.76 6.762h9.36a3.645 3.645 0 0 1 3.642 3.64v6.24h3.12v-6.24a6.767 6.767 0 0 0-6.761-6.76" mask="url(#d)"/>
    </g>
</svg>
