<svg xmlns="http://www.w3.org/2000/svg" width="96" height="100" viewBox="0 0 96 100">
    <path fill="#2D9232" fill-rule="evenodd" d="M82.507 35.355H47.932c-6.753-10.392-8.443-21.149-3.392-26.422 6.456-6.736 21.906-1.992 33.74 10.358 5.095 5.316 8.82 11.636 10.656 17.786a12.705 12.705 0 0 0-6.43-1.722zm7.694 49.17c0 4.171-2.215 8.77-6.45 9.49-5.3.898-9.643-3.518-9.643-8.862V70.118c0-3.846-1.508-7.624-4.137-10.368 0 0-16.96-17.741-17.641-18.536h30.173c2.049 0 3.865.764 5.252 2.209 1.577 1.643 2.445 3.985 2.445 6.593v34.51h.001zM34.55 51.78a2.724 2.724 0 0 1 3.97 0c1.094 1.142 1.094 3 0 4.143a2.728 2.728 0 0 1-3.97 0c-1.097-1.146-1.097-2.999 0-4.143zM52.24 91.053l-.017.016c-6.454 6.737-21.906 1.993-33.74-10.356C12.47 74.434 8.192 67.156 6.442 60.216c-1.61-6.383-.857-11.61 2.112-14.707l.875-.908a24.768 24.768 0 0 0 2.87 4.05c4.202 4.83 10.077 7.732 16.285 8.092a8.8 8.8 0 0 0 1.995 3.322c3.285 3.426 8.626 3.426 11.91 0 3.282-3.427 3.282-9.002 0-12.427-3.284-3.428-8.625-3.428-11.91 0a8.782 8.782 0 0 0-1.965 3.235c-4.637-.342-9.012-2.544-12.159-6.161a18.953 18.953 0 0 1-2.873-4.415l22.404-23.22c-.027 2.437.305 5.048 1.01 7.787 1.987 7.721 6.781 15.834 13.498 22.843l15.509 16.186a9.074 9.074 0 0 1 2.493 6.225v4.243L52.24 91.053zM11.83 29.84c.805-8.704 7.668-16.026 16.689-17.807l5.394-1.066L11.835 33.85a21.22 21.22 0 0 1-.004-4.009zM60.07 1.057C52.708-.963 46.332-.066 41.893 3.57l-.024-.133-14.393 2.841C16.018 8.54 7.286 17.998 6.244 29.278c-.304 3.293-.025 6.512.8 9.538L4.59 41.36c-4.446 4.64-5.716 11.866-3.577 20.348 1.998 7.927 6.793 16.148 13.501 23.149 6.707 7 14.584 12.004 22.18 14.09 6.903 1.897 14.42 1.559 19.49-3.725l12.31-12.64v2.572c0 8.873 7.357 16.136 16.157 14.643 6.9-1.171 11.161-7.985 11.161-15.27V46.349c.376-10.284-4.692-21.942-13.563-31.2C75.542 8.147 67.666 3.143 60.07 1.056z"/>
</svg>
