<svg xmlns="http://www.w3.org/2000/svg" xmlns:xlink="http://www.w3.org/1999/xlink" width="77" height="77" viewBox="0 0 77 77">
    <defs>
        <path id="a" d="M0 .899h76.102v44.392H0z"/>
        <path id="c" d="M0 77.102h76.102V1H0z"/>
    </defs>
    <g fill="none" fill-rule="evenodd" transform="translate(0 -1)">
        <path fill="#2D9232" d="M19.026 74.565H5.073a2.539 2.539 0 0 1-2.537-2.536c0-1.4 1.138-2.537 2.538-2.537 1.183 0 2.235.687 2.615 1.712a1.267 1.267 0 0 0 2.457-.444 3.81 3.81 0 0 1 3.806-3.805 3.81 3.81 0 0 1 3.804 3.805 1.27 1.27 0 0 0 1.27 1.269c.698 0 1.268.569 1.268 1.267 0 .7-.57 1.269-1.268 1.269m1.175-4.888c-.515-2.982-3.122-5.258-6.248-5.258a6.352 6.352 0 0 0-5.696 3.553 5.411 5.411 0 0 0-.646-.391V46.66a1.269 1.269 0 1 0-2.537 0v20.294A5.079 5.079 0 0 0 0 72.029a5.078 5.078 0 0 0 5.074 5.073h13.952a3.81 3.81 0 0 0 3.805-3.806 3.813 3.813 0 0 0-2.63-3.62"/>
        <g transform="translate(0 .102)">
            <mask id="b" fill="#fff">
                <use xlink:href="#a"/>
            </mask>
            <path fill="#2D9232" d="M74.833 11.045H50.734a1.269 1.269 0 0 0 0 2.537h22.83v27.379L38.947 6.343a1.268 1.268 0 0 0-.9-.371c-.326 0-.652.123-.9.371L2.536 40.959V13.582h13.951c.7 0 1.27-.568 1.27-1.268V7.24c0-.7-.57-1.268-1.27-1.268h-1.267V3.435h7.61v2.537h-1.269c-.7 0-1.268.568-1.268 1.268v5.074c0 .7.568 1.268 1.268 1.268h3.805a1.27 1.27 0 0 0 0-2.537H22.83V8.508h1.27c.7 0 1.267-.567 1.267-1.268V2.166c0-.699-.568-1.267-1.268-1.267H13.952c-.7 0-1.268.568-1.268 1.267V7.24c0 .7.568 1.268 1.268 1.268h1.27v2.537H1.268A1.267 1.267 0 0 0 0 12.314l.005 31.709a1.266 1.266 0 0 0 1.268 1.268c.331 0 .656-.13.897-.372l35.877-35.89 35.89 35.89a1.268 1.268 0 0 0 2.165-.896V12.314a1.27 1.27 0 0 0-1.269-1.269" mask="url(#b)"/>
        </g>
        <path fill="#2D9232" d="M71.028 74.565H57.077a1.27 1.27 0 0 1-1.27-1.27c0-.697.57-1.266 1.27-1.266.7 0 1.267-.568 1.267-1.27a3.81 3.81 0 0 1 3.806-3.803 3.81 3.81 0 0 1 3.806 3.804 1.267 1.267 0 1 0 2.456.445c.381-1.026 1.432-1.713 2.616-1.713a2.539 2.539 0 0 1 2.536 2.537 2.538 2.538 0 0 1-2.535 2.536m0-7.61V46.662a1.269 1.269 0 1 0-2.537 0V67.58a5.505 5.505 0 0 0-.648.39 6.35 6.35 0 0 0-5.694-3.552c-3.127 0-5.733 2.276-6.25 5.258a3.813 3.813 0 0 0-2.628 3.619c0 .449.09.87.235 1.269H31.71a1.269 1.269 0 1 0 0 2.537h39.318a5.078 5.078 0 0 0 5.073-5.073 5.079 5.079 0 0 0-5.073-5.074M35.514 26.367a2.54 2.54 0 0 1 2.537-2.537 2.54 2.54 0 0 1 2.537 2.538 2.539 2.539 0 0 1-2.537 2.536 2.54 2.54 0 0 1-2.537-2.537m7.61 0a5.078 5.078 0 0 0-5.073-5.073 5.078 5.078 0 0 0-5.073 5.073 5.078 5.078 0 0 0 5.073 5.073 5.078 5.078 0 0 0 5.073-5.073"/>
        <mask id="d" fill="#fff">
            <use xlink:href="#c"/>
        </mask>
        <path fill="#2D9232" d="M53.272 51.735h7.609v-5.073h-7.609v5.073zm0 7.61h7.609V54.27h-7.609v5.074zm8.878-15.22H52.003c-.7 0-1.268.568-1.268 1.268v13.952h-1.269a1.27 1.27 0 0 0 0 2.536h15.221a1.268 1.268 0 0 0 0-2.536h-1.269V45.393c0-.7-.568-1.268-1.268-1.268z" mask="url(#d)"/>
        <path fill="#2D9232" d="M43.124 56.808h-1.269a1.268 1.268 0 0 0 0 2.537h1.27v10.147H32.977v-22.83h10.146v10.146zm7.61 13.952c0-.7-.568-1.268-1.268-1.268h-3.805v-24.1c0-.7-.568-1.268-1.268-1.268H31.71c-.7 0-1.269.569-1.269 1.269v24.099h-3.804c-.7 0-1.269.568-1.269 1.268v5.073a1.27 1.27 0 0 0 2.537 0v-3.804h21.562c.7 0 1.268-.57 1.268-1.27z" mask="url(#d)"/>
        <path fill="#2D9232" d="M15.221 51.735h7.609v-5.073h-7.609v5.073zm0 7.61h7.609V54.27h-7.609v5.074zm8.878-15.22H13.952c-.7 0-1.268.568-1.268 1.268v13.952h-1.269a1.268 1.268 0 0 0 0 2.536h15.221a1.268 1.268 0 0 0 0-2.536h-1.269V45.393c0-.7-.568-1.268-1.268-1.268z" mask="url(#d)"/>
    </g>
</svg>
