<svg xmlns="http://www.w3.org/2000/svg" xmlns:xlink="http://www.w3.org/1999/xlink" width="77" height="77" viewBox="0 0 77 77">
    <defs>
        <path id="a" d="M0 76.804h76.104V0H0z"/>
    </defs>
    <g fill="none" fill-rule="evenodd">
        <path fill="#2D9232" d="M54.759 65.419H7.182a1.255 1.255 0 0 1 0-2.508h47.577c.69 0 1.255.563 1.255 1.254a1.257 1.257 0 0 1-1.255 1.254zM8.306 48.543c0-.603.492-1.095 1.096-1.095h43.137c.604 0 1.096.492 1.096 1.095V60.66H8.305V48.543zm47.578 12.305V48.543a3.348 3.348 0 0 0-3.345-3.344H9.402a3.348 3.348 0 0 0-3.345 3.344v12.305a3.508 3.508 0 0 0-2.38 3.317 3.508 3.508 0 0 0 3.505 3.504h47.577a3.508 3.508 0 0 0 3.504-3.504 3.508 3.508 0 0 0-2.38-3.317z"/>
        <path fill="#2D9232" d="M58.112 49.512h-.978v2.249h.978c1.271 0 1.271.305 1.271.726v15.03c0 1.026-.689 2.239-1.27 2.239H3.828c-.665 0-1.58-1.297-1.58-2.238V52.487c0-.236 0-.726 1.58-.726h.97v-2.25h-.97c-1 0-1.824.18-2.447.536C.492 50.556 0 51.422 0 52.487v15.032c0 .944.388 2.026 1.04 2.893.76 1.013 1.777 1.594 2.79 1.594h.97v4.798h2.248v-4.798h48.886v4.798h2.25v-4.801c2.221-.056 3.45-2.671 3.45-4.485V52.487c0-1.112-.459-2.975-3.522-2.975"/>
        <mask id="b" fill="#fff">
            <use xlink:href="#a"/>
        </mask>
        <path fill="#2D9232" d="M11.996 54.161h2.399v-2.25h-2.399zM47.536 54.161h2.55v-2.25h-2.55zM29.841 54.161h2.399v-2.25h-2.399zM2.359 23.789h32.244V2.249H2.359v21.54zm-2.25 2.249h36.743V0H.109v26.038z" mask="url(#b)"/>
        <path fill="#2D9232" d="M5.928 20.221h25.107V5.818H5.928v14.403zm-2.25 2.249h29.606V3.569H3.678V22.47zM40.421 40.441h16.782V28.417H40.421v12.024zm-2.249 2.249h21.28V26.168h-21.28V42.69z" mask="url(#b)"/>
        <path fill="#2D9232" d="M43.989 36.873h9.646v-4.888h-9.646v4.888zm-2.25 2.249h14.145v-9.386H41.739v9.386zM49.937 21.321v-1.2h-2.25v1.2a7.218 7.218 0 0 1-5.963-5.85h1.315v-2.25h-1.36a7.22 7.22 0 0 1 6.008-6.126v1.627h2.25V7.095a7.218 7.218 0 0 1 6.007 6.126h-1.51v2.25h1.467a7.22 7.22 0 0 1-5.965 5.85M48.813 4.758c-5.212 0-9.45 4.24-9.45 9.451s4.238 9.45 9.45 9.45c5.212 0 9.45-4.239 9.45-9.45 0-5.212-4.239-9.45-9.45-9.45" mask="url(#b)"/>
        <path fill="#2D9232" d="M47.687 10.522v2.7h-3.75v2.248h6v-4.948zM64.209 74.484h9.645v-1.318h-9.645v1.318zm5.972-3.567V44.413h-2.249v26.503H61.96v5.818h14.143v-5.818h-5.922v.001zM71.476 35.715h-3.544v2.25h3.544v1.287h-4.887v-21.54h4.887v18.003zm-7.137-20.252V41.5h3.593v1.862h2.249V41.5h3.545V15.463h-9.387zM13.522 11.035l2.38-2.379 1.59 1.59-2.379 2.379zM13.522 15.792l8.326-8.326 1.591 1.59-8.326 8.327zM19.47 15.793l2.378-2.38 1.59 1.592-2.378 2.379z" mask="url(#b)"/>
    </g>
</svg>
