<svg xmlns="http://www.w3.org/2000/svg" width="95" height="100" viewBox="0 0 95 100">
    <path fill="#2D9232" fill-rule="evenodd" d="M74.694 64.159l-7.426-14.377 10.667-12.631 10.16 19.672-13.401 7.336zM17.077 94.14c-6.278 0-11.384-5.257-11.384-11.72V5.86h22.769v76.562c0 1.468-.266 2.871-.747 4.167l-.006.016c-.05.136-.108.282-.17.433-1.744 4.175-5.776 7.104-10.462 7.104zm31.847-64.427l-14.771-5.837V7.14l20.21 7.985-5.44 14.588zm15.583 14.407l-11.141-9.97 5.789-15.523 15.31 13.701-9.958 11.792zM48.6 71.887l2.64 5.108-12.928 7.077L48.6 71.887zM34.153 53.166l5.251 2.075-5.251 14.081V53.166zm7.291-3.396l-7.291-2.88V30.153l12.73 5.031-5.439 14.586zm9.37 10.564l-5.408-4.838.332-.89 5.456-14.633 9.578 8.57-9.958 11.791zm-7.58.983l3.846 3.44-9.181 10.871 5.336-14.311zm13.031 12.928l-3.664-7.095.642-.76 10.025-11.87 6.4 12.39-13.403 7.335zm38.193-17.586L81.096 30.791a2.909 2.909 0 0 0-.358-.535 2.843 2.843 0 0 0-.39-.428L60.592 12.15a2.887 2.887 0 0 0-1.532-1.446L32.49.208a2.76 2.76 0 0 0-.873-.19 2.697 2.697 0 0 0-.31-.018H2.845C1.274 0 0 1.311 0 2.93v79.491C0 92.115 7.662 100 17.077 100c3.497 0 6.752-1.088 9.46-2.952.227-.057.452-.143.666-.26l47.65-26.081L93.281 60.62a2.914 2.914 0 0 0 1.386-1.73 3.01 3.01 0 0 0-.21-2.232z"/>
</svg>
