<svg xmlns="http://www.w3.org/2000/svg" xmlns:xlink="http://www.w3.org/1999/xlink" width="81" height="81" viewBox="0 0 81 81">
    <defs>
        <path id="a" d="M0 .368h80.812V30H.001z"/>
        <path id="c" d="M.162.188h24.244v35.019H.162z"/>
    </defs>
    <g fill="none" fill-rule="evenodd">
        <path fill="#2D9232" d="M51.182 52.528a1.347 1.347 0 0 0-2.694 0v2.694a1.347 1.347 0 1 0 2.694 0v-2.694zM49.834 67.343c-.743 0-1.347.604-1.347 1.348v5.386a1.347 1.347 0 1 0 2.694 0v-5.386a1.347 1.347 0 0 0-1.347-1.348M56.568 36.366a1.347 1.347 0 0 0-2.693 0v2.693a1.346 1.346 0 1 0 2.693 0v-2.693zM51.182 44.447a1.347 1.347 0 0 0-2.694 0v2.694a1.347 1.347 0 1 0 2.694 0v-2.694zM51.182 60.609a1.347 1.347 0 0 0-2.694 0v2.694a1.347 1.347 0 1 0 2.693 0v-2.694zM56.568 44.447a1.347 1.347 0 0 0-2.693 0v2.694a1.347 1.347 0 1 0 2.693 0v-2.694zM45.794 36.366a1.347 1.347 0 0 0-2.694 0v2.693a1.346 1.346 0 1 0 2.694 0v-2.693zM51.182 36.366a1.347 1.347 0 0 0-2.694 0v2.693a1.346 1.346 0 1 0 2.694 0v-2.693zM56.568 22.897v-2.694a1.348 1.348 0 0 0-2.693 0v2.694a1.347 1.347 0 0 0 2.693 0M45.794 44.447a1.347 1.347 0 0 0-2.694 0v2.694a1.347 1.347 0 1 0 2.694 0v-2.694zM61.956 20.203a1.347 1.347 0 0 0-2.693 0v2.694a1.347 1.347 0 1 0 2.693 0v-2.694zM44.446 51.181c-.743 0-1.347.604-1.347 1.347v2.694a1.348 1.348 0 0 0 2.695 0v-2.694c0-.743-.604-1.347-1.348-1.347M67.344 60.609a1.348 1.348 0 0 0-2.694 0v2.694a1.347 1.347 0 1 0 2.694 0v-2.694zM65.997 67.343c-.744 0-1.348.604-1.348 1.348v5.386a1.347 1.347 0 0 0 2.695 0v-5.386c0-.744-.604-1.348-1.347-1.348M71.384 51.181c-.743 0-1.347.604-1.347 1.347v2.694a1.348 1.348 0 0 0 2.695 0v-2.694c0-.743-.604-1.347-1.348-1.347"/>
        <path fill="#2D9232" d="M49.834 24.244c.743 0 1.347-.604 1.347-1.347v-5.682l13.468-3.367v22.518c0 .562.35 1.064.875 1.262l9.901 3.712v13.883a1.346 1.346 0 0 0 2.693 0V40.406a1.35 1.35 0 0 0-.874-1.262l-9.9-3.712V9.429a1.348 1.348 0 0 0-2.695 0v1.64l-15.142 3.787c-.6.15-1.02.689-1.02 1.307v6.734c0 .743.604 1.347 1.347 1.347"/>
        <path fill="#2D9232" d="M72.731 44.447a1.347 1.347 0 0 0-2.694 0v2.694a1.347 1.347 0 1 0 2.694 0v-2.694zM67.344 44.447a1.347 1.347 0 0 0-2.693 0v2.694a1.346 1.346 0 1 0 2.693 0v-2.694zM56.568 60.609a1.347 1.347 0 0 0-2.693 0v2.694a1.347 1.347 0 1 0 2.693 0v-2.694zM67.344 52.528a1.347 1.347 0 0 0-2.693 0v2.694a1.346 1.346 0 1 0 2.693 0v-2.694zM55.222 67.343c-.743 0-1.347.604-1.347 1.348v5.386a1.347 1.347 0 1 0 2.694 0v-5.386c0-.744-.604-1.348-1.347-1.348M56.568 52.528a1.347 1.347 0 0 0-2.693 0v2.694a1.347 1.347 0 1 0 2.693 0v-2.694z"/>
        <path fill="#2D9232" d="M60.61 75.425c.742 0 1.346-.604 1.346-1.347v-43.1c0-.618-.422-1.157-1.02-1.307l-21.55-5.388c-.4-.1-.83-.008-1.156.246a1.343 1.343 0 0 0-.518 1.061v29.632a1.348 1.348 0 0 0 2.694 0V27.316l18.856 4.713v42.05c0 .742.604 1.346 1.347 1.346M29.63 28.285a1.348 1.348 0 0 0-2.692 0v2.693a1.347 1.347 0 1 0 2.693 0v-2.693zM29.63 20.203c0-.743-.603-1.347-1.346-1.347-.743 0-1.346.604-1.346 1.347v2.694a1.347 1.347 0 1 0 2.693 0v-2.694zM18.857 60.609a1.348 1.348 0 0 0-2.694 0v2.694a1.347 1.347 0 1 0 2.694 0v-2.694z"/>
        <path fill="#2D9232" d="M6.734 48.488c.743 0 1.347-.604 1.347-1.347v-6.735H21.55v33.672a1.348 1.348 0 0 0 2.694 0v-35.02c0-.742-.604-1.345-1.347-1.345H6.734c-.743 0-1.347.603-1.347 1.346v8.082c0 .743.604 1.347 1.347 1.347M21.55 28.285v2.693a1.348 1.348 0 0 0 2.693 0v-2.693a1.347 1.347 0 1 0-2.693 0M29.63 12.122c0-.743-.603-1.347-1.346-1.347-.743 0-1.346.604-1.346 1.347v2.694a1.347 1.347 0 1 0 2.693 0v-2.694z"/>
        <path fill="#2D9232" d="M17.509 67.343c-.743 0-1.347.604-1.347 1.348v5.386a1.347 1.347 0 1 0 2.695 0v-5.386c0-.744-.604-1.348-1.348-1.348"/>
        <g transform="translate(0 50.812)">
            <mask id="b" fill="#fff">
                <use xlink:href="#a"/>
            </mask>
            <path fill="#2D9232" d="M72.731 13.838a2.696 2.696 0 0 1 2.694-2.693 2.697 2.697 0 0 1 2.695 2.693 2.697 2.697 0 0 1-2.696 2.693 2.696 2.696 0 0 1-2.693-2.693M35.02 15.184a4.046 4.046 0 0 1 4.04-4.04 4.044 4.044 0 0 1 4.04 4.04 4.046 4.046 0 0 1-4.04 4.04 4.047 4.047 0 0 1-4.04-4.04M2.694 7.102a4.046 4.046 0 0 1 4.04-4.04 4.046 4.046 0 0 1 4.041 4.04 4.047 4.047 0 0 1-4.04 4.042 4.046 4.046 0 0 1-4.042-4.041m76.773 20.203h-2.694v-8.273c2.316-.602 4.04-2.694 4.04-5.196a5.393 5.393 0 0 0-5.388-5.388 5.393 5.393 0 0 0-5.387 5.388c0 2.502 1.724 4.594 4.041 5.196v8.273H40.407v-5.524c3.07-.627 5.389-3.346 5.389-6.599a6.744 6.744 0 0 0-6.736-6.734 6.742 6.742 0 0 0-6.733 6.735c0 3.252 2.316 5.972 5.386 6.597v5.524H8.082V13.701c3.068-.627 5.386-3.345 5.386-6.598A6.743 6.743 0 0 0 6.735.37 6.742 6.742 0 0 0 0 7.104c0 3.253 2.318 5.97 5.388 6.597v13.605H1.346a1.346 1.346 0 0 0 0 2.694h78.12a1.346 1.346 0 1 0 0-2.694" mask="url(#b)"/>
        </g>
        <path fill="#2D9232" d="M10.775 68.69v5.388a1.347 1.347 0 1 0 2.694 0V68.69a1.348 1.348 0 1 0-2.694 0M18.857 44.447a1.348 1.348 0 0 0-2.694 0v2.694a1.347 1.347 0 1 0 2.694 0v-2.694zM18.857 52.528a1.348 1.348 0 0 0-2.694 0v2.694a1.347 1.347 0 1 0 2.694 0v-2.694zM10.775 44.447v2.694a1.347 1.347 0 1 0 2.694 0v-2.694a1.347 1.347 0 0 0-2.694 0M29.63 52.528c0-.743-.603-1.347-1.346-1.347-.743 0-1.346.604-1.346 1.347v2.694a1.347 1.347 0 1 0 2.693 0v-2.694zM35.019 36.366a1.347 1.347 0 0 0-2.693 0v2.693a1.346 1.346 0 1 0 2.693 0v-2.693zM35.019 28.285a1.348 1.348 0 0 0-2.693 0v2.693a1.347 1.347 0 1 0 2.693 0v-2.693zM35.019 44.447a1.347 1.347 0 0 0-2.693 0v2.694a1.347 1.347 0 1 0 2.693 0v-2.694zM33.672 51.181c-.743 0-1.347.604-1.347 1.347v2.694a1.348 1.348 0 0 0 2.694 0v-2.694c0-.743-.604-1.347-1.347-1.347M35.019 20.203a1.347 1.347 0 0 0-2.693 0v2.694a1.347 1.347 0 1 0 2.693 0v-2.694zM29.63 60.609c0-.743-.603-1.347-1.346-1.347-.743 0-1.346.604-1.346 1.347v2.694a1.347 1.347 0 1 0 2.693 0v-2.694z"/>
        <g transform="translate(16 -.188)">
            <mask id="d" fill="#fff">
                <use xlink:href="#c"/>
            </mask>
            <path fill="#2D9232" d="M1.509 35.207c.744 0 1.348-.604 1.348-1.347v-9.943l4.642-2.32c.456-.23.744-.696.744-1.206V9.1l6.735-3.367 6.734 3.368V20.39a1.348 1.348 0 0 0 2.694 0V8.27a1.35 1.35 0 0 0-.745-1.207l-7.336-3.667V1.535a1.347 1.347 0 1 0-2.694 0v1.86L6.295 7.064A1.35 1.35 0 0 0 5.55 8.27v11.289l-4.643 2.32a1.35 1.35 0 0 0-.745 1.206v10.774c0 .744.604 1.348 1.347 1.348" mask="url(#d)"/>
        </g>
        <path fill="#2D9232" d="M29.63 44.447c0-.743-.603-1.347-1.346-1.347-.743 0-1.346.604-1.346 1.347v2.694a1.347 1.347 0 1 0 2.693 0v-2.694zM28.284 67.343c-.743 0-1.347.604-1.347 1.348v5.386a1.347 1.347 0 1 0 2.694 0v-5.386c0-.744-.604-1.348-1.347-1.348M35.019 12.122a1.347 1.347 0 0 0-2.693 0v2.694a1.347 1.347 0 1 0 2.693 0v-2.694zM29.63 36.366c0-.743-.603-1.347-1.346-1.347-.743 0-1.346.604-1.346 1.347v2.693a1.346 1.346 0 1 0 2.693 0v-2.693z"/>
    </g>
</svg>
