<svg xmlns="http://www.w3.org/2000/svg" width="87" height="100" viewBox="0 0 87 100">
    <path fill="#2D9232" fill-rule="evenodd" d="M37.709 69.336h7.589v-7.812h-7.59v7.812zm0 24.805h7.59V75.196h-7.59V94.14zm1.3-70.701h30.716V5.863H39.01V23.44zm-5.692 14.843c0 1.615-1.278 2.93-2.846 2.93-1.569 0-2.847-1.315-2.847-2.93V28.42c0-1.619-1.273-2.93-2.845-2.93-1.572 0-2.846 1.311-2.846 2.93v19.63c0 1.616-1.277 2.93-2.846 2.93-1.57 0-2.846-1.314-2.846-2.93V5.86h17.076v32.423zM5.692 23.439h4.857V5.862H5.692v17.577zm77.482-11.718h-7.756V2.932c0-1.618-1.275-2.93-2.846-2.93H36.214L36.164 0H13.395c-.018 0-.034.002-.052.003H2.846C1.274.003 0 1.313 0 2.933v23.436c0 1.619 1.274 2.93 2.846 2.93h7.703v18.75c0 4.848 3.83 8.79 8.538 8.79s8.538-3.942 8.538-8.79V46.57c.891.325 1.85.502 2.846.502 4.707 0 8.538-3.943 8.538-8.79V29.3h33.564c1.57 0 2.846-1.311 2.846-2.93v-8.79h4.908v15.098c0 1.333-.876 2.5-2.131 2.835l-31.724 8.475c-4.601 1.23-7.815 5.506-7.815 10.398v1.28h-3.794c-1.571 0-2.846 1.312-2.846 2.93V97.07c0 1.618 1.275 2.929 2.846 2.929h13.28c1.573 0 2.847-1.311 2.847-2.929V58.594c0-1.617-1.274-2.93-2.846-2.93H44.35v-1.28c0-2.223 1.46-4.167 3.551-4.725l31.724-8.476c3.766-1.005 6.394-4.504 6.394-8.506V14.65c0-1.617-1.275-2.93-2.845-2.93z"/>
</svg>
