<svg xmlns="http://www.w3.org/2000/svg" width="75" height="75" viewBox="0 0 75 75">
    <path fill="#2D9232" fill-rule="evenodd" d="M71.46 20.628L37.739 6.648a1.434 1.434 0 0 0-1.113 0L2.905 20.627v-3.093L37.183 3.03 71.46 17.535v3.093zm-5.23 7.26H51.708v-2.906h2.905c.8 0 1.452-.653 1.452-1.453s-.652-1.452-1.452-1.452H51.56c-.675-3.31-3.61-5.81-7.117-5.81H29.92c-3.508 0-6.441 2.5-7.116 5.81h-3.052c-.8 0-1.452.651-1.452 1.452 0 .8.652 1.453 1.452 1.453h2.905v2.905H8.134v-6.28L37.183 9.56 66.23 21.606v6.281zM38.635 49.672H66.23V30.791H38.634v18.882zM66.23 65.65h-4.357v-8.713c0-.803-.65-1.454-1.452-1.454h-8.715c-.802 0-1.452.651-1.452 1.454v8.713h-11.62V52.58H66.23v13.07zm-4.357 5.811h4.357v-2.905h-4.357v2.905zm-8.715 0h5.81V58.388h-5.81V71.46zm-14.524 0h11.62v-2.905h-11.62v2.905zm10.167-43.573H25.564V23.53a4.362 4.362 0 0 1 4.357-4.357h14.523a4.362 4.362 0 0 1 4.358 4.357v4.358zM8.132 49.673H35.73V30.791H8.133v18.882zm27.598 17.43v4.357H8.134V52.578H35.73v14.525zm37.749-51.868L37.749.115a1.456 1.456 0 0 0-1.133 0L.886 15.234A1.454 1.454 0 0 0 0 16.573v6.23a1.451 1.451 0 0 0 2.009 1.342l3.22-1.335V72.912c0 .802.65 1.452 1.453 1.452h61.002c.802 0 1.452-.65 1.452-1.452V22.81l3.22 1.335a1.452 1.452 0 0 0 2.009-1.342v-6.23c0-.584-.35-1.11-.886-1.338z"/>
</svg>
